<?xml version="1.0" standalone="no"?>
<!DOCTYPE svg PUBLIC "-//W3C//DTD SVG 20010904//EN" "http://www.w3.org/TR/2001/REC-SVG-20010904/DTD/svg10.dtd">
<!-- Created using Karbon, part of Calligra: http://www.calligra.org/karbon -->
<svg xmlns="http://www.w3.org/2000/svg" xmlns:xlink="http://www.w3.org/1999/xlink" width="164pt" height="168.751pt">
<defs/>
<g id="layer1">
  <rect id="hint-tile-center" transform="translate(57.5934, 0)" fill="#008000" opacity="0.87500000000" width="4.00000000000pt" height="3.50000000000pt"/>
  <g id="shadow-center" transform="translate(-253.363, 2.5533)" fill="none">
   <path id="path3642" transform="matrix(0.315703 0 0 0.315703 0.197314 0.197314)" fill="#000000" fill-opacity="0.00000000000" d="M0 0L0 62L62 62L62 2.66454e-15Z"/>
  </g>
  <rect id="shadow-hint-right-margin" transform="translate(195, 72.9391)" fill="#008000" opacity="0.87500000000" width="8.00000000000pt" height="3.20000000000pt"/>
  <rect id="shadow-hint-bottom-margin" transform="translate(161, 106.939)" fill="#008000" opacity="0.87500000000" width="3.20000000000pt" height="8.00000000000pt"/>
  <rect id="shadow-hint-left-margin" transform="translate(121, 72.9391)" fill="#008000" opacity="0.87500000000" width="8.00000000000pt" height="3.20000000000pt"/>
  <rect id="shadow-hint-top-margin" transform="translate(162, 32.9391)" fill="#008000" opacity="0.87500000000" width="3.20000000000pt" height="8.00000000000pt"/>
  <g id="topright" transform="translate(56.375, 44.3141)" fill="none">
   <path id="path3402" transform="translate(0.625, 1.625)" fill="#ececec" fill-opacity="0.66666666667" d="M0 0L0 6L6 6L6 4.00002C6 1.78403 4.216 2e-5 2 2e-5Z"/>
   <path id="path3984" transform="translate(0.625, 0.625)" fill="#ececec" fill-opacity="0.66666666667" d="M0 0L0 1L2 1C4.216 1 6 2.78401 6 5L6 7L7 7L7 5C7 2.23 4.77 0 2 0Z"/>
  </g>
  <rect id="center" transform="translate(7, 51.9391)" fill="#ececec" fill-opacity="0.66666666667" width="40.00000000000pt" height="39.99998160000pt"/>
  <g id="right" transform="translate(56.375, 51.3141)" fill="none">
   <path id="path4172" transform="translate(0.62502, 0.625)" fill="#ececec" fill-opacity="0.66666666667" d="M5.99998 50L5.99998 0L0 0L0 50Z"/>
   <path id="path4058" transform="translate(6.625, 0.625)" fill="#ececec" fill-opacity="0.66666666667" d="M1 50L1 0L0 0L0 50Z"/>
   <path id="path4064" transform="translate(0.625, 0.625)" fill="#ffffff" fill-opacity="0.00000000000" d="M1 50L1 0L0 0L0 50Z"/>
  </g>
  <g id="topleft" transform="translate(-0.625, 44.3141)" fill="none">
   <path id="path4189" transform="matrix(-1 0 0 1 7.625 1.625)" fill="#ececec" fill-opacity="0.66666666667" d="M0 0L0 6L6 6L6 4.00002C6 1.78403 4.216 2e-5 2 2e-5Z"/>
   <path id="path4191" transform="matrix(-1 0 0 1 7.625 0.625)" fill="#ececec" fill-opacity="0.66666666667" d="M0 0L0 1L2 1C4.216 1 6 2.78401 6 5L6 7L7 7L7 5C7 2.23 4.77 0 2 0Z"/>
  </g>
  <g id="left" transform="translate(-0.625, 51.3141)" fill="none">
   <path id="path4203" transform="matrix(-1 0 0 1 7.62498 0.625)" fill="#ececec" fill-opacity="0.66666666667" d="M5.99998 50L5.99998 0L0 0L0 50Z"/>
   <path id="path4197" transform="matrix(-1 0 0 1 1.625 0.625)" fill="#ececec" fill-opacity="0.66666666667" d="M1 50L1 0L0 0L0 50Z"/>
   <path id="path4201" transform="matrix(-1 0 0 1 7.625 0.625)" fill="#ffffff" fill-opacity="0.00000000000" d="M1 50L1 0L0 0L0 50Z"/>
  </g>
  <g id="bottomright" transform="translate(56.375, 101.314)" fill="none">
   <path id="path4207" transform="matrix(1 0 0 -1 0.625 6.625)" fill="#ececec" fill-opacity="0.66666666667" d="M0 0L0 6L6 6L6 4.00002C6 1.78403 4.216 2e-5 2 2e-5Z"/>
   <path id="path4209" transform="matrix(1 0 0 -1 0.625 7.625)" fill="#ececec" fill-opacity="0.66666666667" d="M0 0L0 1L2 1C4.216 1 6 2.78401 6 5L6 7L7 7L7 5C7 2.23 4.77 0 2 0Z"/>
  </g>
  <g id="bottomleft" transform="translate(-0.625, 101.314)" fill="none">
   <path id="path4215" transform="matrix(-1 0 0 -1 7.625 6.625)" fill="#ececec" fill-opacity="0.66666666667" d="M0 0L0 6L6 6L6 4.00002C6 1.78403 4.216 2e-5 2 2e-5Z"/>
   <path id="path4217" transform="matrix(-1 0 0 -1 7.625 7.625)" fill="#ececec" fill-opacity="0.66666666667" d="M0 0L0 1L2 1C4.216 1 6 2.78401 6 5L6 7L7 7L7 5C7 2.23 4.77 0 2 0Z"/>
  </g>
  <g id="bottom" transform="translate(6.375, 101.314)" fill="none">
   <path id="path4229" transform="matrix(0 1 -1 0 50.625 0.62502)" fill="#ececec" fill-opacity="0.66666666667" d="M5.99998 50L5.99998 0L0 0L0 50Z"/>
   <path id="path4223" transform="matrix(0 1 -1 0 50.625 6.625)" fill="#ececec" fill-opacity="0.66666666667" d="M1 50L1 0L0 0L0 50Z"/>
   <path id="path4227" transform="matrix(0 1 -1 0 50.625 0.625)" fill="#ffffff" fill-opacity="0.00000000000" d="M1 50L1 0L0 0L0 50Z"/>
  </g>
  <g id="top" transform="translate(6.375, 44.3141)" fill="none">
   <path id="path4239" transform="matrix(0 -1 -1 0 50.625 7.62498)" fill="#ececec" fill-opacity="0.66666666667" d="M5.99998 50L5.99998 0L0 0L0 50Z"/>
   <path id="path4233" transform="matrix(0 -1 -1 0 50.625 1.625)" fill="#ececec" fill-opacity="0.66666666667" d="M1 50L1 0L0 0L0 50Z"/>
   <path id="path4237" transform="matrix(0 -1 -1 0 50.625 7.625)" fill="#ffffff" fill-opacity="0.00000000000" d="M1 50L1 0L0 0L0 50Z"/>
  </g>
  <rect id="hint-top-margin" transform="translate(31, 58.9391)" fill="#008000" width="3.20000000000pt" height="3.20000000000pt"/>
  <rect id="hint-bottom-margin" transform="translate(31, 94.9391)" fill="#008000" width="3.20000000000pt" height="3.20000000000pt"/>
  <rect id="hint-left-margin" transform="translate(13, 76.9391)" fill="#008000" width="3.20000000000pt" height="3.20000000000pt"/>
  <rect id="hint-right-margin" transform="translate(49, 76.9391)" fill="#008000" width="3.20000000000pt" height="3.20000000000pt"/>
 </g>
</svg>
